<svg width="11" height="11" viewBox="0 0 11 11" fill="none" xmlns="http://www.w3.org/2000/svg">
<path d="M1.23573 10.9653C0.717923 10.9653 0.349876 10.7343 0.131586 10.2723C-0.0867039 9.81036 -0.0334006 9.38139 0.291496 8.98542L3.67245 4.87345V1.21836H3.06327C2.89067 1.21836 2.74599 1.15998 2.62923 1.04322C2.51247 0.926463 2.45409 0.781783 2.45409 0.609181C2.45409 0.43658 2.51247 0.291899 2.62923 0.17514C2.74599 0.0583799 2.89067 0 3.06327 0H7.93672C8.10932 0 8.254 0.0583799 8.37076 0.17514C8.48752 0.291899 8.5459 0.43658 8.5459 0.609181C8.5459 0.781783 8.48752 0.926463 8.37076 1.04322C8.254 1.15998 8.10932 1.21836 7.93672 1.21836H7.32754V4.87345L10.7085 8.98542C11.0334 9.38139 11.0867 9.81036 10.8684 10.2723C10.6501 10.7343 10.2821 10.9653 9.76426 10.9653H1.23573ZM1.23573 9.7469H9.76426L6.10918 5.29988V1.21836H4.89081V5.29988L1.23573 9.7469Z" fill="#FFB95F"/>
</svg>
